<?xml version="1.0" standalone="no"?>
<!DOCTYPE svg PUBLIC "-//W3C//DTD SVG 20010904//EN"
 "http://www.w3.org/TR/2001/REC-SVG-20010904/DTD/svg10.dtd">
<svg version="1.0" xmlns="http://www.w3.org/2000/svg"
 width="160.000000pt" height="160.000000pt" viewBox="0 0 160.000000 160.000000"
 preserveAspectRatio="xMidYMid meet">
<metadata>
Created by potrace 1.13, written by Peter Selinger 2001-2015
</metadata>
<g transform="translate(0.000000,160.000000) scale(0.100000,-0.100000)"
fill="#000000" stroke="none">
<path d="M125 1581 c-22 -10 -52 -31 -67 -47 -59 -64 -58 -45 -58 -736 0 -595
2 -635 19 -673 10 -22 31 -52 47 -67 64 -59 45 -58 736 -58 595 0 635 2 673
19 22 10 52 31 67 47 59 64 58 45 58 734 0 689 1 670 -58 734 -15 16 -45 37
-67 47 -38 17 -78 19 -675 19 -597 0 -637 -2 -675 -19z m1187 -22 c90 -46 169
-156 219 -304 19 -57 24 -90 24 -180 -1 -98 -4 -118 -30 -183 -16 -40 -48 -95
-70 -122 -92 -112 -260 -213 -465 -281 -55 -18 -100 -37 -100 -43 0 -24 131
-381 143 -388 35 -24 46 -24 122 -2 44 13 85 24 92 24 6 0 16 -14 22 -30 l10
-30 -362 0 -362 0 -195 566 c-155 449 -200 570 -218 581 -18 13 -30 13 -66 4
-25 -6 -48 -11 -51 -11 -3 0 -5 34 -3 77 l3 76 110 38 c61 20 236 80 390 133
l279 96 234 0 c217 0 236 -1 274 -21z"/>
<path d="M670 1359 c-30 -11 -63 -23 -73 -26 -10 -3 -17 -9 -15 -12 2 -4 57
-163 123 -354 118 -342 120 -347 145 -342 47 12 126 55 169 92 113 96 123 276
26 468 -39 79 -75 121 -135 161 -57 38 -161 44 -240 13z"/>
</g>
</svg>
