<?xml version="1.0" standalone="no"?>
<!DOCTYPE svg PUBLIC "-//W3C//DTD SVG 20010904//EN"
 "http://www.w3.org/TR/2001/REC-SVG-20010904/DTD/svg10.dtd">
<svg version="1.0" xmlns="http://www.w3.org/2000/svg"
 width="160.000000pt" height="160.000000pt" viewBox="0 0 160.000000 160.000000"
 preserveAspectRatio="xMidYMid meet">
<metadata>
Created by potrace 1.13, written by Peter Selinger 2001-2015
</metadata>
<g transform="translate(0.000000,160.000000) scale(0.100000,-0.100000)"
fill="#000000" stroke="none">
<path d="M156 1590 c-74 -23 -140 -99 -151 -174 -3 -22 -5 -315 -3 -651 3
-670 0 -634 64 -699 65 -64 25 -61 734 -61 l645 0 47 28 c31 18 57 44 75 75
l28 47 0 645 c0 709 3 669 -61 734 -65 64 -27 61 -719 63 -347 1 -643 -2 -659
-7z m1172 -34 c122 -77 219 -258 237 -443 18 -179 -79 -364 -251 -478 -98 -65
-267 -139 -411 -181 -9 -2 -4 -26 18 -86 33 -91 42 -108 33 -61 -6 31 -4 33
282 237 159 113 292 202 295 198 4 -4 16 -33 28 -65 19 -52 21 -78 21 -283 0
-166 -4 -233 -13 -257 -20 -46 -89 -104 -134 -113 -38 -8 -713 -12 -855 -5
-46 2 -75 7 -72 13 3 5 13 7 21 4 21 -9 26 -22 -183 584 -207 600 -193 570
-278 545 -25 -8 -46 -11 -47 -7 -1 17 3 157 5 159 1 2 171 61 377 132 l374
130 258 1 c254 0 258 0 295 -24z"/>
<path d="M720 1366 c-92 -26 -130 -39 -130 -45 0 -7 167 -490 216 -628 l26
-71 47 19 c103 43 168 95 203 163 57 111 10 341 -96 471 -65 78 -176 117 -266
91z"/>
</g>
</svg>
